<svg width="1454" height="610" xmlns="http://www.w3.org/2000/svg" xmlns:xlink="http://www.w3.org/1999/xlink" preserveAspectRatio="none"><defs><linearGradient x1="0%" y1="27.458%" x2="128.938%" y2="27.458%" id="a"><stop stop-color="#1F066C" offset="0%"/><stop stop-color="#01FFC6" offset="100%"/></linearGradient><path d="M0 0h1454v353.133C794.125 546.982 398.914 630.862 268.367 604.773 137.82 578.685 48.365 524.138 0 441.133V0z" id="b"/></defs><g fill="none" fill-rule="evenodd"><path d="M0 0h1454v353.133C794.125 546.982 398.914 630.862 268.367 604.773 137.82 578.685 48.365 524.138 0 441.133V0z" fill="url(#a)" fill-rule="nonzero"/><mask id="c" fill="#fff"><use xlink:href="#b"/></mask><g fill="#AED6DC" fill-rule="nonzero" opacity=".112" mask="url(#c)"><path d="M819.447 567L1320-3.299 1205.553-4 705 566.299zm117.756 5L1438 1.35 1388.105 1 887 571.65z"/></g><path d="M-33 0h808.576c29.68 351.008-62.442 511.705-276.362 482.092C285.293 452.478 129.17 474.782 30.848 549L-33 482.092V0z" fill="#FFF" fill-rule="nonzero" opacity=".066"/></g></svg>