<svg id="visual" viewBox="0 0 900 600" width="900" height="600" xmlns="http://www.w3.org/2000/svg" xmlns:xlink="http://www.w3.org/1999/xlink" version="1.1"><rect x="0" y="0" width="900" height="600" fill="#001220"></rect><path d="M0 329L21.5 324.7C43 320.3 86 311.7 128.8 320.3C171.7 329 214.3 355 257.2 360.7C300 366.3 343 351.7 385.8 329.7C428.7 307.7 471.3 278.3 514.2 278C557 277.7 600 306.3 642.8 320C685.7 333.7 728.3 332.3 771.2 332.8C814 333.3 857 335.7 878.5 336.8L900 338L900 601L878.5 601C857 601 814 601 771.2 601C728.3 601 685.7 601 642.8 601C600 601 557 601 514.2 601C471.3 601 428.7 601 385.8 601C343 601 300 601 257.2 601C214.3 601 171.7 601 128.8 601C86 601 43 601 21.5 601L0 601Z" fill="#0066ff"></path><path d="M0 394L21.5 396C43 398 86 402 128.8 391C171.7 380 214.3 354 257.2 352.8C300 351.7 343 375.3 385.8 381.8C428.7 388.3 471.3 377.7 514.2 366.8C557 356 600 345 642.8 335.7C685.7 326.3 728.3 318.7 771.2 319.3C814 320 857 329 878.5 333.5L900 338L900 601L878.5 601C857 601 814 601 771.2 601C728.3 601 685.7 601 642.8 601C600 601 557 601 514.2 601C471.3 601 428.7 601 385.8 601C343 601 300 601 257.2 601C214.3 601 171.7 601 128.8 601C86 601 43 601 21.5 601L0 601Z" fill="#007bfd"></path><path d="M0 436L21.5 438.3C43 440.7 86 445.3 128.8 446.7C171.7 448 214.3 446 257.2 431.8C300 417.7 343 391.3 385.8 388.3C428.7 385.3 471.3 405.7 514.2 416.3C557 427 600 428 642.8 432.5C685.7 437 728.3 445 771.2 445.7C814 446.3 857 439.7 878.5 436.3L900 433L900 601L878.5 601C857 601 814 601 771.2 601C728.3 601 685.7 601 642.8 601C600 601 557 601 514.2 601C471.3 601 428.7 601 385.8 601C343 601 300 601 257.2 601C214.3 601 171.7 601 128.8 601C86 601 43 601 21.5 601L0 601Z" fill="#008df7"></path><path d="M0 421L21.5 430.3C43 439.7 86 458.3 128.8 458.5C171.7 458.7 214.3 440.3 257.2 438.7C300 437 343 452 385.8 462.7C428.7 473.3 471.3 479.7 514.2 470.5C557 461.3 600 436.7 642.8 434.2C685.7 431.7 728.3 451.3 771.2 453.5C814 455.7 857 440.3 878.5 432.7L900 425L900 601L878.5 601C857 601 814 601 771.2 601C728.3 601 685.7 601 642.8 601C600 601 557 601 514.2 601C471.3 601 428.7 601 385.8 601C343 601 300 601 257.2 601C214.3 601 171.7 601 128.8 601C86 601 43 601 21.5 601L0 601Z" fill="#009ced"></path><path d="M0 516L21.5 516.5C43 517 86 518 128.8 513.3C171.7 508.7 214.3 498.3 257.2 490.8C300 483.3 343 478.7 385.8 484.8C428.7 491 471.3 508 514.2 514.3C557 520.7 600 516.3 642.8 516.7C685.7 517 728.3 522 771.2 523.8C814 525.7 857 524.3 878.5 523.7L900 523L900 601L878.5 601C857 601 814 601 771.2 601C728.3 601 685.7 601 642.8 601C600 601 557 601 514.2 601C471.3 601 428.7 601 385.8 601C343 601 300 601 257.2 601C214.3 601 171.7 601 128.8 601C86 601 43 601 21.5 601L0 601Z" fill="#00a7db"></path><path d="M0 553L21.5 551.3C43 549.7 86 546.3 128.8 545.2C171.7 544 214.3 545 257.2 548.8C300 552.7 343 559.3 385.8 557.7C428.7 556 471.3 546 514.2 546.2C557 546.3 600 556.7 642.8 556C685.7 555.3 728.3 543.7 771.2 537.5C814 531.3 857 530.7 878.5 530.3L900 530L900 601L878.5 601C857 601 814 601 771.2 601C728.3 601 685.7 601 642.8 601C600 601 557 601 514.2 601C471.3 601 428.7 601 385.8 601C343 601 300 601 257.2 601C214.3 601 171.7 601 128.8 601C86 601 43 601 21.5 601L0 601Z" fill="#24aec7"></path></svg>